<svg id="Layer_5" enable-background="new 0 0 64 64" height="512" viewBox="0 0 64 64" width="512" xmlns="http://www.w3.org/2000/svg"><g><path d="m37 39.54v-7.135c2.685 1.676 5.812 2.595 9 2.595 9.374 0 17-7.626 17-17s-7.626-17-17-17c-8.59 0-15.694 6.41-16.825 14.695-1.838-1.183-3.926-2.011-6.175-2.412v-5.283c0-1.654-1.346-3-3-3h-12c-1.654 0-3 1.346-3 3v8c0 1.366.923 2.508 2.174 2.87-2.665 3.073-4.174 7.015-4.174 11.13v9.54c-1.224 1.1-2 2.689-2 4.46 0 3.309 2.691 6 6 6v8c0 2.757 2.243 5 5 5h16c2.757 0 5-2.243 5-5v-8c3.309 0 6-2.691 6-6 0-1.771-.776-3.36-2-4.46zm9-36.54c2.232 0 4.254 2.387 5.546 6h-11.092c1.292-3.613 3.314-6 5.546-6zm6.159 8c.462 1.821.746 3.858.816 6h-13.951c.07-2.142.354-4.179.816-6zm8.79 6h-5.975c-.063-2.139-.322-4.16-.752-6h5.034c.961 1.812 1.55 3.845 1.693 6zm-14.949 16c-2.232 0-4.254-2.387-5.546-6h11.092c-1.292 3.613-3.314 6-5.546 6zm-9.272-6h1.608c.663 2.039 1.541 3.791 2.59 5.122-1.397-.502-2.713-1.223-3.926-2.138-.002-1.016-.098-2.013-.272-2.984zm3.113-2c-.462-1.821-.746-3.858-.816-6h13.951c-.07 2.142-.354 4.179-.816 6zm15.133-6h5.975c-.143 2.155-.732 4.188-1.693 6h-5.034c.43-1.84.689-3.861.752-6zm-17.948-2h-5.975c.143-2.155.732-4.188 1.693-6h5.034c-.43 1.84-.689 3.861-.752 6zm0 2c.063 2.139.322 4.16.752 6h-1.543c-.686-2.223-1.815-4.259-3.294-6zm14.072 13.089c1.038-1.327 1.908-3.066 2.566-5.089h4.308c-1.737 2.304-4.115 4.087-6.874 5.089zm6.874-23.089h-4.308c-.658-2.023-1.528-3.762-2.566-5.089 2.759 1.002 5.137 2.785 6.874 5.089zm-17.07-5.089c-1.038 1.327-1.908 3.066-2.566 5.089h-4.308c1.737-2.304 4.115-4.087 6.874-5.089zm-33.902 4.089c0-.552.448-1 1-1h12c.552 0 1 .448 1 1v8c0 .552-.448 1-1 1h-7v3.764c0 .22-.35.301-.447.105l-1.935-3.869h-2.618c-.552 0-1-.448-1-1zm-2 22c0-4.043 1.652-7.894 4.528-10.708l1.237 2.473c.381.761 1.147 1.235 1.999 1.235 1.233 0 2.236-1.003 2.236-2.236v-1.764h5c1.654 0 3-1.346 3-3v-.69c6.914 1.403 12 7.523 12 14.69v8.35c-.627-.222-1.298-.35-2-.35v-8c0-2.757-2.243-5-5-5h-16c-2.757 0-5 2.243-5 5v8c-.702 0-1.373.128-2 .35zm12 12c0-1.654 1.346-3 3-3s3 1.346 3 3-1.346 3-3 3-3-1.346-3-3zm3 5c.632 0 1.241.092 1.823.249l-1.823 2.189-1.823-2.188c.582-.158 1.191-.25 1.823-.25zm-3.729 1.087 3.729 4.476 3.73-4.475c1.961 1.241 3.27 3.424 3.27 5.912v1h-14v-1c0-2.488 1.309-4.672 3.271-5.913zm7.106-2.424c.991-.914 1.623-2.212 1.623-3.663 0-2.757-2.243-5-5-5s-5 2.243-5 5c0 1.451.632 2.749 1.623 3.663-3.293 1.339-5.623 4.569-5.623 8.337v1h-2v-20h22v20h-2v-1c0-3.768-2.33-6.998-5.623-8.337zm7.623-12.663h-22v-3c0-1.654 1.346-3 3-3h16c1.654 0 3 1.346 3 3zm-28 11c0-2.206 1.794-4 4-4v8c-2.206 0-4-1.794-4-4zm25 17h-16c-1.654 0-3-1.346-3-3v-1h22v1c0 1.654-1.346 3-3 3zm5-13v-8c2.206 0 4 1.794 4 4s-1.794 4-4 4z"/><path d="m17 29h6v2h-6z"/><path d="m9 11h2v2h-2z"/><path d="m13 11h2v2h-2z"/><path d="m17 11h2v2h-2z"/><path d="m57 61h-2v-20h-6v20h-2v-16h-6v18h22v-14h-6zm-12 0h-2v-14h2zm6-18h2v18h-2zm8 8h2v10h-2z"/></g></svg>